<?xml version="1.0" encoding="UTF-8" standalone="no"?>
<!DOCTYPE svg PUBLIC "-//W3C//DTD SVG 1.1//EN" "http://www.w3.org/Graphics/SVG/1.1/DTD/svg11.dtd">
<svg xmlns="http://www.w3.org/2000/svg" version="1.1" viewBox="0.00 0.00 1024.00 1024.00">
<g stroke-width="2.00" fill="none" stroke-linecap="butt">
<path stroke="#2a254b" vector-effect="non-scaling-stroke" d="
  M 641.81 341.36
  C 637.11 337.81 631.75 335.72 627.22 332.10
  Q 618.94 325.49 609.31 320.97
  Q 606.98 319.88 604.63 317.92
  Q 598.21 312.57 590.03 310.70
  C 587.80 310.19 585.40 309.15 582.88 308.85
  Q 582.37 308.79 581.96 308.50
  Q 576.30 304.48 569.34 303.95
  Q 561.51 303.34 554.28 300.43
  Q 552.86 299.86 551.15 299.28
  C 548.32 298.32 546.14 297.04 543.29 296.50
  Q 534.39 294.82 527.26 295.25
  C 524.70 295.41 522.37 294.98 520.26 295.30
  Q 516.22 295.91 512.13 295.77
  Q 512.05 295.77 512.04 295.84
  L 512.00 296.19
  Q 511.96 296.44 511.71 296.44
  Q 505.95 296.37 500.18 296.40
  C 495.93 296.41 491.66 297.35 487.25 297.67
  C 486.23 297.75 484.12 298.83 483.49 298.72
  Q 478.28 297.79 473.34 299.33
  C 468.76 300.76 464.95 300.78 460.46 301.18
  C 455.71 301.60 450.75 303.01 445.73 303.62
  Q 445.23 303.68 444.83 303.97
  C 442.88 305.36 440.59 305.33 438.79 306.45
  C 433.02 310.07 427.02 312.40 421.00 315.53
  C 419.35 316.38 416.98 316.26 415.51 317.53
  C 412.59 320.05 407.34 324.65 403.10 321.29
  Q 402.75 321.01 402.32 321.13
  C 400.69 321.56 400.14 322.85 398.96 323.52
  Q 394.82 325.84 390.49 327.82
  C 386.37 329.70 385.02 333.96 379.98 335.36
  Q 379.28 335.56 379.32 336.29
  L 379.43 338.29
  Q 379.48 339.11 380.24 338.80
  Q 380.74 338.60 381.23 338.57
  Q 382.22 338.50 381.37 339.01
  Q 375.39 342.56 370.41 347.47
  C 367.96 349.89 368.63 351.77 364.76 353.28
  Q 362.21 354.28 360.25 356.21
  Q 359.94 356.53 359.77 356.95
  Q 359.04 358.82 357.14 359.06
  Q 356.62 359.12 356.24 359.47
  L 351.66 363.61
  Q 351.27 363.96 351.08 364.45
  C 349.56 368.24 346.08 370.57 343.38 374.61
  C 342.22 376.34 340.66 377.16 339.20 378.68
  C 337.80 380.15 337.51 382.06 336.39 383.84
  Q 336.33 383.95 336.44 383.98
  Q 336.58 384.03 336.72 384.07
  Q 336.97 384.15 336.78 384.34
  C 334.30 386.79 331.26 388.40 329.34 391.36
  Q 328.08 393.31 326.47 395.07
  Q 325.99 395.60 326.52 396.08
  L 328.08 397.51
  Q 328.41 397.81 328.24 398.22
  Q 327.56 399.89 325.82 400.11
  Q 325.34 400.18 324.99 400.49
  L 321.33 403.79
  Q 321.06 404.03 321.07 404.39
  L 321.19 409.55
  Q 321.20 409.98 320.88 410.26
  L 318.53 412.30
  Q 318.09 412.68 318.19 413.25
  Q 318.67 416.00 317.20 418.31
  Q 316.91 418.76 316.88 419.29
  Q 316.66 422.99 314.32 425.59
  C 311.70 428.50 310.93 430.64 310.01 434.11
  C 309.63 435.55 310.11 437.23 308.68 438.76
  Q 308.38 439.07 307.96 439.15
  L 306.80 439.35
  Q 306.29 439.44 306.09 439.91
  Q 305.47 441.35 305.98 442.78
  Q 306.16 443.29 305.91 443.77
  Q 302.75 449.76 301.87 456.46
  C 301.32 460.66 299.62 463.99 299.42 468.37
  Q 299.07 476.26 296.71 483.82
  C 295.47 487.78 295.47 491.24 295.18 495.21
  Q 295.02 497.38 294.00 502.55
  C 292.90 508.17 294.55 513.71 294.15 518.60
  Q 294.11 519.08 294.32 519.50
  C 295.34 521.54 294.97 523.67 295.14 525.28
  Q 296.06 534.26 296.08 543.30
  Q 296.08 543.81 296.46 544.16
  C 299.44 546.91 298.76 550.15 299.52 553.06
  C 300.22 555.76 300.69 558.04 301.76 560.89
  C 303.62 565.88 303.08 570.13 305.90 575.55
  Q 306.09 575.93 306.45 576.14
  Q 311.35 579.06 309.23 584.23
  A 1.34 1.32 -52.9 0 0 309.40 585.54
  Q 312.52 589.64 312.34 594.78
  Q 312.32 595.36 312.79 595.72
  L 315.32 597.64
  Q 315.76 597.97 315.97 598.48
  L 318.77 605.23
  Q 318.99 605.75 318.80 606.27
  Q 318.25 607.77 319.52 608.07
  Q 320.13 608.21 320.02 608.83
  Q 319.61 611.15 321.15 612.74
  Q 321.53 613.14 321.70 613.68
  L 322.88 617.56
  Q 323.05 618.11 323.51 618.44
  L 327.47 621.26
  Q 327.95 621.59 328.08 622.16
  Q 328.67 624.76 330.85 626.34
  Q 331.27 626.64 331.41 627.14
  Q 331.91 628.90 333.93 630.80
  C 336.68 633.39 338.07 638.60 341.15 641.77
  C 346.59 647.37 352.27 653.48 358.43 658.27
  C 362.93 661.77 364.44 666.75 369.61 669.90
  Q 372.20 671.47 373.67 672.95
  Q 379.68 678.97 386.80 683.63
  C 389.09 685.13 389.87 687.46 392.55 688.70
  Q 399.67 691.99 406.66 695.56
  C 409.35 696.93 414.11 698.14 417.28 701.06
  C 420.19 703.74 422.12 704.74 425.35 706.20
  C 430.62 708.58 435.10 712.02 441.28 712.82
  C 451.09 714.10 458.81 717.27 468.86 721.54
  C 471.64 722.72 474.96 722.98 477.97 724.32
  C 479.19 724.87 480.38 724.41 481.77 725.13
  C 486.89 727.77 494.71 728.64 500.28 727.79
  Q 502.71 727.42 505.16 727.16
  C 506.27 727.04 511.51 728.05 512.00 726.67
  Q 512.09 726.40 512.35 726.50
  Q 512.98 726.75 513.55 726.32
  Q 513.96 725.99 514.47 726.13
  C 517.37 726.88 520.17 726.09 522.61 726.14
  Q 528.37 726.26 534.10 725.61
  C 535.36 725.46 536.45 724.56 537.49 724.48
  C 541.39 724.19 544.63 722.81 548.55 722.75
  C 550.82 722.72 553.13 721.20 555.42 720.71
  Q 557.29 720.30 559.57 719.40
  C 562.50 718.23 566.24 718.41 568.47 718.10
  Q 571.97 717.61 575.47 717.06
  Q 576.01 716.97 576.00 716.43
  Q 576.00 716.29 576.00 716.16
  Q 576.00 715.53 576.62 715.40
  C 581.80 714.31 584.22 711.22 588.79 709.70
  C 594.14 707.91 596.65 707.16 601.79 703.30
  Q 606.07 700.09 612.75 699.78
  Q 613.21 699.76 613.60 699.51
  L 621.57 694.45
  Q 621.80 694.31 621.78 694.05
  C 621.77 693.81 627.18 690.75 627.90 690.14
  C 639.58 680.25 653.20 671.94 663.07 660.07
  C 666.49 655.97 670.80 652.67 673.73 649.38
  Q 677.70 644.92 681.69 640.46
  Q 682.10 640.00 681.49 640.00
  L 679.91 640.00
  Q 679.44 640.00 679.50 639.53
  Q 679.56 638.98 680.45 638.92
  Q 680.84 638.90 681.22 638.96
  C 683.50 639.35 686.61 631.90 687.71 628.94
  Q 688.60 626.52 692.09 623.96
  Q 692.53 623.63 692.74 623.13
  Q 694.52 618.73 697.76 615.39
  Q 698.12 615.02 698.21 614.51
  Q 698.62 612.18 700.58 610.87
  Q 701.03 610.57 701.21 610.05
  C 702.51 606.28 704.52 603.10 705.56 599.25
  C 706.73 594.94 707.74 591.73 710.68 587.93
  Q 712.88 585.10 714.33 581.79
  Q 714.51 581.38 714.94 581.26
  C 716.73 580.73 715.07 579.08 716.13 578.13
  Q 716.49 577.80 716.57 577.33
  Q 717.17 573.75 719.58 568.08
  C 720.94 564.87 720.37 560.24 721.15 557.03
  C 721.52 555.50 723.35 547.54 724.88 547.26
  Q 725.35 547.18 725.49 546.72
  L 727.04 541.83
  Q 727.24 541.20 726.90 540.62
  Q 726.08 539.20 727.28 538.13
  Q 727.64 537.82 727.59 537.34
  Q 727.15 533.50 728.78 530.08
  Q 729.01 529.59 728.94 529.05
  C 728.53 526.17 729.10 521.19 725.73 519.11
  Q 725.31 518.84 725.15 518.37
  C 724.31 515.79 724.94 512.73 724.80 510.71
  C 724.44 505.92 724.27 502.41 724.69 496.78
  C 725.12 491.19 722.17 486.68 721.96 481.75
  Q 721.80 477.94 720.85 475.25
  Q 720.68 474.79 720.80 474.30
  Q 721.46 471.64 720.31 469.16
  Q 720.11 468.72 720.21 468.25
  L 720.80 465.62
  Q 720.92 465.11 720.72 464.62
  Q 719.64 461.88 719.35 458.97
  Q 719.29 458.42 718.91 458.02
  Q 716.21 455.24 716.89 451.39
  Q 716.96 451.00 716.56 451.04
  L 715.62 451.14
  Q 714.78 451.23 715.05 450.42
  C 715.82 448.15 717.16 444.57 715.33 442.43
  C 710.03 436.22 710.87 427.50 705.95 421.21
  Q 705.87 421.12 705.92 421.00
  Q 705.96 420.88 705.98 420.75
  Q 706.01 420.56 705.91 420.39
  C 705.24 419.22 705.37 415.70 703.81 416.01
  Q 703.29 416.11 703.27 415.58
  Q 703.26 415.42 703.16 415.28
  Q 703.01 415.05 702.72 415.00
  Q 700.43 414.61 700.51 412.41
  Q 700.52 411.93 700.20 411.56
  Q 695.98 406.76 692.28 401.52
  C 690.44 398.91 690.47 396.28 689.49 393.27
  Q 689.31 392.71 688.77 392.96
  Q 687.40 393.58 686.86 391.85
  Q 686.75 391.47 686.87 391.09
  Q 687.39 389.55 686.20 388.13
  Q 685.85 387.72 685.39 387.46
  C 683.74 386.54 683.21 386.29 682.23 384.56
  Q 679.14 379.06 674.84 374.47
  Q 673.47 373.01 672.60 370.92
  C 670.82 366.65 667.42 364.46 665.37 360.85
  Q 665.09 360.35 664.53 360.22
  L 662.01 359.65
  Q 661.55 359.55 661.30 359.14
  C 660.12 357.14 659.43 355.29 657.72 353.67
  Q 649.62 346.03 641.65 338.24
  Q 641.23 337.83 641.13 338.41
  Q 640.87 339.98 642.11 341.16
  Q 644.39 343.31 641.81 341.36"
/>
<path stroke="#878aa0" vector-effect="non-scaling-stroke" d="
  M 376.00 388.21
  Q 374.32 389.68 372.88 391.38
  C 345.63 423.82 328.57 465.68 328.79 508.50"
/>
<path stroke="#6a7da1" vector-effect="non-scaling-stroke" d="
  M 328.79 508.50
  C 327.99 556.25 347.24 603.10 381.74 636.14
  C 405.38 658.77 436.13 676.09 468.78 682.14"
/>
<path stroke="#4b35a6" vector-effect="non-scaling-stroke" d="
  M 468.78 682.14
  Q 512.65 693.39 556.50 681.96"
/>
<path stroke="#6b35a6" vector-effect="non-scaling-stroke" d="
  M 556.50 681.96
  Q 600.35 671.21 633.79 641.00"
/>
<path stroke="#7a379f" vector-effect="non-scaling-stroke" d="
  M 633.79 641.00
  Q 647.47 628.79 658.29 614.00"
/>
<path stroke="#86428b" vector-effect="non-scaling-stroke" d="
  M 658.29 614.00
  Q 680.59 584.01 688.71 547.50"
/>
<path stroke="#8d4d84" vector-effect="non-scaling-stroke" d="
  M 688.71 547.50
  Q 693.24 526.89 693.15 505.75"
/>
<path stroke="#2a254b" vector-effect="non-scaling-stroke" d="
  M 693.15 505.75
  Q 694.54 476.67 685.00 450.01
  Q 683.83 446.75 683.38 444.87
  Q 683.27 444.43 682.82 444.51
  Q 682.42 444.58 682.16 444.93"
/>
<path stroke="#8d4d84" vector-effect="non-scaling-stroke" d="
  M 682.16 444.93
  L 667.20 454.93"
/>
<path stroke="#8e899e" vector-effect="non-scaling-stroke" d="
  M 667.20 454.93
  C 650.40 466.84 634.01 479.18 617.62 491.63
  Q 539.37 551.10 460.59 611.33
  Q 459.36 612.27 460.52 613.29
  Q 468.59 620.42 479.48 623.45"
/>
<path stroke="#4b35a6" vector-effect="non-scaling-stroke" d="
  M 479.48 623.45
  Q 469.33 622.14 459.75 618.54"
/>
<path stroke="#4147a5" vector-effect="non-scaling-stroke" d="
  M 459.75 618.54
  Q 440.35 610.00 428.04 592.75"
/>
<path stroke="#3662a3" vector-effect="non-scaling-stroke" d="
  M 428.04 592.75
  Q 421.99 584.62 417.92 575.52"
/>
<path stroke="#2a254b" vector-effect="non-scaling-stroke" d="
  M 417.92 575.52
  Q 416.79 570.23 414.72 565.28
  C 407.23 547.37 402.79 527.39 404.61 509.17
  C 405.30 502.30 404.35 495.64 404.48 488.75
  C 404.54 485.82 405.86 482.56 405.55 479.08
  Q 405.38 477.16 407.22 471.32
  Q 413.08 452.66 423.79 436.30
  Q 423.97 436.02 424.04 435.69
  Q 424.14 435.23 424.39 434.82
  Q 434.94 417.81 449.22 403.85
  C 452.51 400.63 456.50 397.57 460.20 394.40
  C 474.27 382.36 491.27 372.87 508.32 365.75
  C 509.81 365.12 511.57 365.21 513.18 364.49
  C 518.40 362.16 524.45 360.72 531.12 358.10
  C 540.02 354.59 549.36 352.04 558.37 348.76
  C 559.33 348.41 559.82 347.69 559.96 346.75"
/>
<path stroke="#8e899e" vector-effect="non-scaling-stroke" d="
  M 559.96 346.75
  Q 560.42 344.35 558.71 342.76
  C 543.20 328.36 523.86 325.08 503.19 326.14
  C 454.01 328.65 408.44 351.88 376.00 388.21"
/>
<path stroke="#8c899b" vector-effect="non-scaling-stroke" d="
  M 559.96 346.75
  Q 550.33 350.23 516.75 361.25
  Q 482.52 372.47 453.12 398.10
  C 435.39 413.55 422.52 432.08 412.25 453.29"
/>
<path stroke="#e9edef" vector-effect="non-scaling-stroke" d="
  M 412.25 453.29
  C 409.87 449.51 413.70 445.44 415.04 441.84
  Q 416.85 436.94 413.26 434.99
  C 406.07 431.09 400.46 425.29 393.45 421.09
  C 389.79 418.89 387.49 415.65 383.78 413.56
  Q 379.87 411.35 376.92 407.84
  Q 376.57 407.42 376.55 406.87
  Q 376.53 405.75 376.36 404.63
  Q 376.28 404.06 375.98 404.56
  L 375.80 404.87
  Q 375.50 405.36 375.38 404.80
  C 374.64 401.53 376.13 400.66 376.53 398.00
  C 377.02 394.63 380.08 391.06 383.56 388.41
  Q 384.01 388.07 383.98 387.50
  Q 383.91 386.06 385.51 385.95
  Q 386.07 385.91 386.29 385.40
  Q 387.24 383.21 389.18 381.79
  Q 389.65 381.44 389.75 380.87
  Q 389.88 380.13 390.79 379.91
  Q 391.14 379.83 391.31 379.52
  C 391.98 378.30 397.18 373.10 397.08 372.85
  Q 396.81 372.17 396.31 372.70
  Q 394.46 374.62 391.96 375.41
  Q 391.51 375.56 391.19 375.91
  L 386.31 381.43
  Q 385.86 381.94 385.17 381.98
  Q 383.76 382.07 384.01 383.54
  Q 384.13 384.22 383.46 384.04
  Q 382.33 383.73 381.92 384.44
  Q 381.73 384.77 381.39 384.94
  C 380.37 385.47 376.91 388.47 376.00 388.21"
/>
<path stroke="#3462a0" vector-effect="non-scaling-stroke" d="
  M 417.92 575.52
  L 414.54 569.00"
/>
<path stroke="#2a7a9e" vector-effect="non-scaling-stroke" d="
  M 414.54 569.00
  C 401.46 536.08 397.19 500.56 406.50 466.29"
/>
<path stroke="#858a9d" vector-effect="non-scaling-stroke" d="
  M 406.50 466.29
  L 412.25 453.29"
/>
<path stroke="#87dff2" vector-effect="non-scaling-stroke" d="
  M 406.50 466.29
  Q 405.05 466.13 404.19 467.69
  Q 383.12 505.94 386.75 549.04"
/>
<path stroke="#91c7f5" vector-effect="non-scaling-stroke" d="
  M 386.75 549.04
  L 387.04 554.50"
/>
<path stroke="#c5e1f2" vector-effect="non-scaling-stroke" d="
  M 387.04 554.50
  L 387.30 558.60
  Q 387.34 559.25 386.68 559.25
  L 386.26 559.25
  Q 385.56 559.25 385.48 558.56
  Q 385.26 556.57 384.00 555.00
  Q 383.67 554.59 383.24 554.28
  C 381.80 553.28 381.36 551.84 380.06 550.86
  C 377.26 548.75 373.88 547.19 371.40 545.20
  Q 368.79 543.09 366.34 540.77
  Q 365.98 540.43 365.50 540.30
  C 362.97 539.61 362.77 537.31 361.61 535.99
  Q 352.47 525.63 348.99 522.76
  C 346.45 520.66 344.21 518.15 342.11 516.63
  Q 335.80 512.05 328.79 508.50"
/>
<path stroke="#4a84fa" vector-effect="non-scaling-stroke" d="
  M 428.04 592.75
  L 427.36 593.48
  Q 427.11 593.75 426.84 593.52
  Q 426.39 593.14 425.79 593.52
  Q 425.35 593.81 424.85 593.64
  L 410.41 588.69
  Q 409.89 588.51 409.54 588.08
  Q 408.32 586.56 404.91 584.93
  Q 402.15 583.62 397.95 578.78
  Q 396.64 577.27 394.62 577.18
  Q 393.97 577.15 394.28 576.57
  Q 395.03 575.19 393.61 574.01
  Q 393.16 573.63 393.01 574.20
  Q 392.97 574.35 393.00 574.51
  Q 393.18 575.41 392.47 574.49
  Q 391.71 573.51 390.54 573.00"
/>
<path stroke="#36b7f6" vector-effect="non-scaling-stroke" d="
  M 414.54 569.00
  L 414.10 570.02
  Q 413.75 570.82 413.52 569.97
  L 412.59 566.52
  Q 412.44 565.93 412.46 566.54
  Q 412.52 567.77 411.61 568.63
  Q 411.25 568.97 410.76 568.93
  C 406.93 568.66 407.03 565.99 404.40 564.82
  Q 403.91 564.61 403.70 564.12
  Q 402.86 562.19 400.94 561.33
  Q 400.46 561.11 400.28 560.61
  C 399.99 559.76 399.73 559.38 398.90 558.91
  Q 394.88 556.61 391.97 553.04
  Q 391.62 552.61 391.11 552.40
  Q 389.28 551.67 388.57 550.01
  Q 388.36 549.53 387.84 549.58
  Q 387.19 549.65 386.75 549.04"
/>
<path stroke="#73baf6" vector-effect="non-scaling-stroke" d="
  M 387.04 554.50
  Q 388.30 563.85 390.54 573.00"
/>
<path stroke="#7e9ef8" vector-effect="non-scaling-stroke" d="
  M 390.54 573.00
  Q 396.56 599.99 411.00 623.54"
/>
<path stroke="#898df9" vector-effect="non-scaling-stroke" d="
  M 411.00 623.54
  C 424.21 646.32 444.93 669.71 468.78 682.14"
/>
<path stroke="#6057fd" vector-effect="non-scaling-stroke" d="
  M 459.75 618.54
  Q 459.59 619.65 460.19 620.63
  Q 460.30 620.80 460.09 620.80
  L 449.27 620.59
  Q 448.71 620.58 448.34 621.00
  Q 447.69 621.72 447.20 621.05
  C 444.34 620.09 443.03 621.63 440.51 621.48
  Q 440.18 621.46 440.49 621.34
  Q 440.61 621.29 440.76 621.26
  Q 441.34 621.14 440.74 621.10
  L 438.43 620.94
  Q 437.95 620.90 437.53 621.14
  Q 435.75 622.16 433.60 621.69
  Q 433.02 621.56 433.51 621.90
  Q 433.63 621.98 433.77 622.04
  Q 434.41 622.33 433.83 622.38
  Q 432.76 622.47 432.22 623.42
  Q 432.02 623.76 431.63 623.83
  C 426.22 624.77 416.67 619.77 411.05 617.68
  A 1.26 1.26 0.0 0 0 409.52 619.49
  L 411.60 623.08
  Q 411.77 623.36 411.48 623.51
  Q 411.21 623.65 411.00 623.54"
/>
<path stroke="#e8a5da" vector-effect="non-scaling-stroke" d="
  M 662.46 486.50
  C 647.20 556.51 595.53 607.41 525.50 622.21"
/>
<path stroke="#cc98f6" vector-effect="non-scaling-stroke" d="
  M 525.50 622.21
  L 524.21 622.50"
/>
<path stroke="#ad99f6" vector-effect="non-scaling-stroke" d="
  M 524.21 622.50
  C 508.77 625.36 494.66 626.06 479.48 623.45"
/>
<path stroke="#8a45fe" vector-effect="non-scaling-stroke" d="
  M 556.50 681.96
  L 556.72 681.28
  Q 556.82 680.99 556.52 681.00
  Q 556.37 681.00 556.20 680.98
  Q 555.97 680.96 555.83 680.78
  Q 554.26 678.80 551.74 679.05
  Q 551.25 679.10 550.88 678.78
  L 550.12 678.12
  Q 549.69 677.75 550.26 677.75
  L 551.46 677.75
  Q 553.24 677.75 551.53 677.27
  L 544.13 675.17
  Q 544.00 675.13 544.00 675.27
  Q 544.00 675.43 544.01 675.60
  Q 544.03 675.95 543.72 675.78
  L 538.12 672.66
  Q 536.99 672.03 538.28 672.02
  L 541.00 671.99
  Q 542.17 671.98 540.95 671.69
  Q 538.28 671.06 536.36 668.18
  Q 535.56 666.99 534.12 667.57
  Q 533.68 667.76 533.40 667.37
  C 530.82 663.77 527.31 662.64 525.73 657.30
  Q 525.58 656.80 525.10 656.59
  L 522.67 655.55
  Q 522.17 655.33 521.80 654.92
  Q 519.21 651.99 517.12 648.70
  Q 516.82 648.23 516.29 648.06
  L 512.48 646.78
  Q 512.00 646.62 512.00 646.12
  C 512.01 644.82 512.60 641.15 510.25 641.50
  Q 509.71 641.58 509.31 641.19
  L 508.56 640.44
  Q 508.12 640.00 508.75 640.00
  L 509.13 640.00
  Q 509.67 640.00 509.29 639.62
  L 506.85 637.12
  Q 506.29 636.56 507.03 636.28
  L 507.78 636.01
  Q 508.33 635.81 508.19 635.24
  L 507.14 631.08
  Q 506.99 630.46 507.61 630.34
  L 508.43 630.18
  Q 508.85 630.09 509.02 629.71
  Q 509.74 628.07 511.48 627.51
  Q 512.03 627.33 512.01 626.76
  L 511.97 625.24
  Q 511.96 624.86 512.34 624.85
  Q 518.50 624.53 524.21 622.50"
/>
<path stroke="#d454dc" vector-effect="non-scaling-stroke" d="
  M 658.29 614.00
  Q 658.21 612.81 657.13 612.59
  Q 656.65 612.49 656.40 612.07
  L 655.44 610.48
  Q 655.21 610.11 654.81 610.28
  C 650.92 611.95 650.56 607.91 649.46 605.64
  Q 649.25 605.22 649.72 605.24
  Q 649.90 605.25 650.07 605.27
  Q 650.64 605.33 650.44 604.80
  L 649.54 602.40
  Q 649.38 602.00 648.96 602.00
  L 648.50 602.00
  Q 647.95 602.00 647.72 601.51
  L 646.21 598.25
  Q 645.97 597.75 646.52 597.75
  L 646.98 597.75
  Q 647.53 597.75 647.33 597.24
  L 644.94 591.20
  Q 644.73 590.67 644.22 590.39
  L 640.40 588.31
  Q 639.99 588.09 640.00 588.56
  Q 640.00 588.67 640.01 588.82
  Q 640.03 589.25 639.79 588.90
  C 636.35 583.87 630.95 580.93 625.67 576.15
  Q 625.51 576.00 625.29 576.00
  L 624.87 576.00
  Q 624.33 576.00 624.05 575.55
  Q 622.50 573.10 619.78 572.39
  Q 619.36 572.28 619.06 572.59
  Q 604.98 586.67 588.25 597.46"
/>
<path stroke="#c551e3" vector-effect="non-scaling-stroke" d="
  M 588.25 597.46
  C 570.00 609.14 547.17 619.68 525.50 622.21"
/>
<path stroke="#e769c0" vector-effect="non-scaling-stroke" d="
  M 688.71 547.50
  Q 688.46 547.66 688.21 547.64
  Q 687.68 547.59 687.77 547.07
  L 690.53 531.38
  Q 690.61 530.89 690.15 531.06
  C 687.73 531.96 686.05 529.30 684.27 531.71
  Q 684.00 532.08 683.54 532.05
  Q 682.26 531.96 680.97 531.97
  C 678.69 531.98 677.06 533.69 674.44 531.90
  Q 674.02 531.62 673.53 531.55
  C 670.72 531.11 664.07 529.21 662.26 526.82
  Q 661.97 526.43 661.52 526.25
  L 657.99 524.87
  Q 657.56 524.70 657.57 524.24
  Q 657.58 522.95 656.04 522.93
  Q 652.64 522.86 651.23 525.36
  Q 651.18 525.45 651.08 525.43
  L 650.80 525.38
  Q 650.34 525.30 650.53 524.87
  Q 658.02 507.88 662.32 489.83
  C 662.59 488.69 662.52 487.64 662.46 486.50"
/>
<path stroke="#efb0d3" vector-effect="non-scaling-stroke" d="
  M 662.46 486.50
  L 667.20 454.93"
/>
<path stroke="#b847f7" vector-effect="non-scaling-stroke" d="
  M 633.79 641.00
  Q 633.67 640.64 633.80 640.33
  Q 633.88 640.16 633.69 640.14
  C 630.44 639.80 627.23 639.02 622.72 639.51
  Q 622.26 639.56 622.04 639.14
  L 621.14 637.35
  Q 620.91 636.89 620.43 636.69
  Q 614.95 634.37 613.86 628.30
  Q 613.22 624.74 610.29 622.51
  Q 609.87 622.19 609.78 621.67
  L 609.18 618.45
  Q 609.02 617.56 608.22 617.99
  Q 606.99 618.66 605.80 617.84
  Q 605.45 617.60 605.24 617.24
  L 603.38 614.04
  Q 603.09 613.54 602.60 613.25
  Q 597.49 610.20 593.34 605.93
  Q 592.99 605.57 592.51 605.40
  L 591.61 605.06
  Q 591.08 604.87 590.84 604.35
  L 589.16 600.75
  Q 588.99 600.37 588.56 600.32
  L 587.64 600.23
  Q 587.27 600.19 587.31 599.83
  C 587.53 598.07 589.22 598.46 590.30 597.84
  Q 592.42 596.62 590.05 597.61
  Q 589.18 597.98 588.25 597.46"
/>
<path stroke="#8b4d81" vector-effect="non-scaling-stroke" d="
  M 693.15 505.75
  Q 692.39 474.53 682.16 444.93"
/>
<path stroke="#8e899e" vector-effect="non-scaling-stroke" d="
  M 571.36 425.91
  Q 561.08 428.15 553.12 437.13
  Q 529.14 464.17 518.95 475.95
  Q 517.31 477.85 515.30 478.82
  Q 514.76 479.08 514.33 478.68
  Q 512.88 477.36 511.17 475.32
  Q 503.37 466.03 486.19 446.06
  Q 481.54 440.67 474.49 438.25"
/>
<path stroke="#2a254b" vector-effect="non-scaling-stroke" d="
  M 474.49 438.25
  Q 471.47 435.74 468.50 435.97
  C 464.39 436.30 459.32 437.82 455.97 440.93
  C 451.04 445.50 445.59 451.37 446.47 458.40
  C 447.76 468.69 453.67 474.78 461.43 483.49
  C 470.95 494.19 480.71 504.28 489.81 514.75
  C 497.24 523.31 504.30 532.34 512.81 539.85
  Q 513.16 540.16 513.63 540.19
  C 518.48 540.52 525.31 531.91 530.54 526.39
  C 535.21 521.47 540.45 514.79 545.79 509.29
  C 557.05 497.69 566.22 486.75 578.77 473.70
  C 580.33 472.07 581.63 469.71 583.04 468.29
  C 589.84 461.40 596.07 452.55 593.52 442.38
  Q 590.97 432.23 581.04 427.17
  Q 576.42 424.82 571.36 425.91"
/>
<path stroke="#8c899b" vector-effect="non-scaling-stroke" d="
  M 474.49 438.25
  C 462.71 435.57 450.69 442.77 449.31 454.99
  C 447.96 466.88 455.14 474.01 462.83 482.43
  Q 479.50 500.71 509.77 534.73
  Q 511.64 536.84 513.75 538.85
  A 1.58 1.58 0.0 0 0 515.88 538.91
  Q 522.38 533.29 528.38 526.63
  Q 556.95 494.95 585.57 463.32
  C 588.84 459.70 591.52 455.06 592.00 449.99
  Q 593.97 428.97 571.36 425.91"
/>
</g>
<path fill="#282548" d="
  M 0.00 0.00
  L 1024.00 0.00
  L 1024.00 1024.00
  L 0.00 1024.00
  L 0.00 0.00
  Z
  M 641.81 341.36
  C 637.11 337.81 631.75 335.72 627.22 332.10
  Q 618.94 325.49 609.31 320.97
  Q 606.98 319.88 604.63 317.92
  Q 598.21 312.57 590.03 310.70
  C 587.80 310.19 585.40 309.15 582.88 308.85
  Q 582.37 308.79 581.96 308.50
  Q 576.30 304.48 569.34 303.95
  Q 561.51 303.34 554.28 300.43
  Q 552.86 299.86 551.15 299.28
  C 548.32 298.32 546.14 297.04 543.29 296.50
  Q 534.39 294.82 527.26 295.25
  C 524.70 295.41 522.37 294.98 520.26 295.30
  Q 516.22 295.91 512.13 295.77
  Q 512.05 295.77 512.04 295.84
  L 512.00 296.19
  Q 511.96 296.44 511.71 296.44
  Q 505.95 296.37 500.18 296.40
  C 495.93 296.41 491.66 297.35 487.25 297.67
  C 486.23 297.75 484.12 298.83 483.49 298.72
  Q 478.28 297.79 473.34 299.33
  C 468.76 300.76 464.95 300.78 460.46 301.18
  C 455.71 301.60 450.75 303.01 445.73 303.62
  Q 445.23 303.68 444.83 303.97
  C 442.88 305.36 440.59 305.33 438.79 306.45
  C 433.02 310.07 427.02 312.40 421.00 315.53
  C 419.35 316.38 416.98 316.26 415.51 317.53
  C 412.59 320.05 407.34 324.65 403.10 321.29
  Q 402.75 321.01 402.32 321.13
  C 400.69 321.56 400.14 322.85 398.96 323.52
  Q 394.82 325.84 390.49 327.82
  C 386.37 329.70 385.02 333.96 379.98 335.36
  Q 379.28 335.56 379.32 336.29
  L 379.43 338.29
  Q 379.48 339.11 380.24 338.80
  Q 380.74 338.60 381.23 338.57
  Q 382.22 338.50 381.37 339.01
  Q 375.39 342.56 370.41 347.47
  C 367.96 349.89 368.63 351.77 364.76 353.28
  Q 362.21 354.28 360.25 356.21
  Q 359.94 356.53 359.77 356.95
  Q 359.04 358.82 357.14 359.06
  Q 356.62 359.12 356.24 359.47
  L 351.66 363.61
  Q 351.27 363.96 351.08 364.45
  C 349.56 368.24 346.08 370.57 343.38 374.61
  C 342.22 376.34 340.66 377.16 339.20 378.68
  C 337.80 380.15 337.51 382.06 336.39 383.84
  Q 336.33 383.95 336.44 383.98
  Q 336.58 384.03 336.72 384.07
  Q 336.97 384.15 336.78 384.34
  C 334.30 386.79 331.26 388.40 329.34 391.36
  Q 328.08 393.31 326.47 395.07
  Q 325.99 395.60 326.52 396.08
  L 328.08 397.51
  Q 328.41 397.81 328.24 398.22
  Q 327.56 399.89 325.82 400.11
  Q 325.34 400.18 324.99 400.49
  L 321.33 403.79
  Q 321.06 404.03 321.07 404.39
  L 321.19 409.55
  Q 321.20 409.98 320.88 410.26
  L 318.53 412.30
  Q 318.09 412.68 318.19 413.25
  Q 318.67 416.00 317.20 418.31
  Q 316.91 418.76 316.88 419.29
  Q 316.66 422.99 314.32 425.59
  C 311.70 428.50 310.93 430.64 310.01 434.11
  C 309.63 435.55 310.11 437.23 308.68 438.76
  Q 308.38 439.07 307.96 439.15
  L 306.80 439.35
  Q 306.29 439.44 306.09 439.91
  Q 305.47 441.35 305.98 442.78
  Q 306.16 443.29 305.91 443.77
  Q 302.75 449.76 301.87 456.46
  C 301.32 460.66 299.62 463.99 299.42 468.37
  Q 299.07 476.26 296.71 483.82
  C 295.47 487.78 295.47 491.24 295.18 495.21
  Q 295.02 497.38 294.00 502.55
  C 292.90 508.17 294.55 513.71 294.15 518.60
  Q 294.11 519.08 294.32 519.50
  C 295.34 521.54 294.97 523.67 295.14 525.28
  Q 296.06 534.26 296.08 543.30
  Q 296.08 543.81 296.46 544.16
  C 299.44 546.91 298.76 550.15 299.52 553.06
  C 300.22 555.76 300.69 558.04 301.76 560.89
  C 303.62 565.88 303.08 570.13 305.90 575.55
  Q 306.09 575.93 306.45 576.14
  Q 311.35 579.06 309.23 584.23
  A 1.34 1.32 -52.9 0 0 309.40 585.54
  Q 312.52 589.64 312.34 594.78
  Q 312.32 595.36 312.79 595.72
  L 315.32 597.64
  Q 315.76 597.97 315.97 598.48
  L 318.77 605.23
  Q 318.99 605.75 318.80 606.27
  Q 318.25 607.77 319.52 608.07
  Q 320.13 608.21 320.02 608.83
  Q 319.61 611.15 321.15 612.74
  Q 321.53 613.14 321.70 613.68
  L 322.88 617.56
  Q 323.05 618.11 323.51 618.44
  L 327.47 621.26
  Q 327.95 621.59 328.08 622.16
  Q 328.67 624.76 330.85 626.34
  Q 331.27 626.64 331.41 627.14
  Q 331.91 628.90 333.93 630.80
  C 336.68 633.39 338.07 638.60 341.15 641.77
  C 346.59 647.37 352.27 653.48 358.43 658.27
  C 362.93 661.77 364.44 666.75 369.61 669.90
  Q 372.20 671.47 373.67 672.95
  Q 379.68 678.97 386.80 683.63
  C 389.09 685.13 389.87 687.46 392.55 688.70
  Q 399.67 691.99 406.66 695.56
  C 409.35 696.93 414.11 698.14 417.28 701.06
  C 420.19 703.74 422.12 704.74 425.35 706.20
  C 430.62 708.58 435.10 712.02 441.28 712.82
  C 451.09 714.10 458.81 717.27 468.86 721.54
  C 471.64 722.72 474.96 722.98 477.97 724.32
  C 479.19 724.87 480.38 724.41 481.77 725.13
  C 486.89 727.77 494.71 728.64 500.28 727.79
  Q 502.71 727.42 505.16 727.16
  C 506.27 727.04 511.51 728.05 512.00 726.67
  Q 512.09 726.40 512.35 726.50
  Q 512.98 726.75 513.55 726.32
  Q 513.96 725.99 514.47 726.13
  C 517.37 726.88 520.17 726.09 522.61 726.14
  Q 528.37 726.26 534.10 725.61
  C 535.36 725.46 536.45 724.56 537.49 724.48
  C 541.39 724.19 544.63 722.81 548.55 722.75
  C 550.82 722.72 553.13 721.20 555.42 720.71
  Q 557.29 720.30 559.57 719.40
  C 562.50 718.23 566.24 718.41 568.47 718.10
  Q 571.97 717.61 575.47 717.06
  Q 576.01 716.97 576.00 716.43
  Q 576.00 716.29 576.00 716.16
  Q 576.00 715.53 576.62 715.40
  C 581.80 714.31 584.22 711.22 588.79 709.70
  C 594.14 707.91 596.65 707.16 601.79 703.30
  Q 606.07 700.09 612.75 699.78
  Q 613.21 699.76 613.60 699.51
  L 621.57 694.45
  Q 621.80 694.31 621.78 694.05
  C 621.77 693.81 627.18 690.75 627.90 690.14
  C 639.58 680.25 653.20 671.94 663.07 660.07
  C 666.49 655.97 670.80 652.67 673.73 649.38
  Q 677.70 644.92 681.69 640.46
  Q 682.10 640.00 681.49 640.00
  L 679.91 640.00
  Q 679.44 640.00 679.50 639.53
  Q 679.56 638.98 680.45 638.92
  Q 680.84 638.90 681.22 638.96
  C 683.50 639.35 686.61 631.90 687.71 628.94
  Q 688.60 626.52 692.09 623.96
  Q 692.53 623.63 692.74 623.13
  Q 694.52 618.73 697.76 615.39
  Q 698.12 615.02 698.21 614.51
  Q 698.62 612.18 700.58 610.87
  Q 701.03 610.57 701.21 610.05
  C 702.51 606.28 704.52 603.10 705.56 599.25
  C 706.73 594.94 707.74 591.73 710.68 587.93
  Q 712.88 585.10 714.33 581.79
  Q 714.51 581.38 714.94 581.26
  C 716.73 580.73 715.07 579.08 716.13 578.13
  Q 716.49 577.80 716.57 577.33
  Q 717.17 573.75 719.58 568.08
  C 720.94 564.87 720.37 560.24 721.15 557.03
  C 721.52 555.50 723.35 547.54 724.88 547.26
  Q 725.35 547.18 725.49 546.72
  L 727.04 541.83
  Q 727.24 541.20 726.90 540.62
  Q 726.08 539.20 727.28 538.13
  Q 727.64 537.82 727.59 537.34
  Q 727.15 533.50 728.78 530.08
  Q 729.01 529.59 728.94 529.05
  C 728.53 526.17 729.10 521.19 725.73 519.11
  Q 725.31 518.84 725.15 518.37
  C 724.31 515.79 724.94 512.73 724.80 510.71
  C 724.44 505.92 724.27 502.41 724.69 496.78
  C 725.12 491.19 722.17 486.68 721.96 481.75
  Q 721.80 477.94 720.85 475.25
  Q 720.68 474.79 720.80 474.30
  Q 721.46 471.64 720.31 469.16
  Q 720.11 468.72 720.21 468.25
  L 720.80 465.62
  Q 720.92 465.11 720.72 464.62
  Q 719.64 461.88 719.35 458.97
  Q 719.29 458.42 718.91 458.02
  Q 716.21 455.24 716.89 451.39
  Q 716.96 451.00 716.56 451.04
  L 715.62 451.14
  Q 714.78 451.23 715.05 450.42
  C 715.82 448.15 717.16 444.57 715.33 442.43
  C 710.03 436.22 710.87 427.50 705.95 421.21
  Q 705.87 421.12 705.92 421.00
  Q 705.96 420.88 705.98 420.75
  Q 706.01 420.56 705.91 420.39
  C 705.24 419.22 705.37 415.70 703.81 416.01
  Q 703.29 416.11 703.27 415.58
  Q 703.26 415.42 703.16 415.28
  Q 703.01 415.05 702.72 415.00
  Q 700.43 414.61 700.51 412.41
  Q 700.52 411.93 700.20 411.56
  Q 695.98 406.76 692.28 401.52
  C 690.44 398.91 690.47 396.28 689.49 393.27
  Q 689.31 392.71 688.77 392.96
  Q 687.40 393.58 686.86 391.85
  Q 686.75 391.47 686.87 391.09
  Q 687.39 389.55 686.20 388.13
  Q 685.85 387.72 685.39 387.46
  C 683.74 386.54 683.21 386.29 682.23 384.56
  Q 679.14 379.06 674.84 374.47
  Q 673.47 373.01 672.60 370.92
  C 670.82 366.65 667.42 364.46 665.37 360.85
  Q 665.09 360.35 664.53 360.22
  L 662.01 359.65
  Q 661.55 359.55 661.30 359.14
  C 660.12 357.14 659.43 355.29 657.72 353.67
  Q 649.62 346.03 641.65 338.24
  Q 641.23 337.83 641.13 338.41
  Q 640.87 339.98 642.11 341.16
  Q 644.39 343.31 641.81 341.36
  Z"
/>
<path fill="#2c254e" d="
  M 642.11 341.16
  Q 640.87 339.98 641.13 338.41
  Q 641.23 337.83 641.65 338.24
  Q 649.62 346.03 657.72 353.67
  C 659.43 355.29 660.12 357.14 661.30 359.14
  Q 661.55 359.55 662.01 359.65
  L 664.53 360.22
  Q 665.09 360.35 665.37 360.85
  C 667.42 364.46 670.82 366.65 672.60 370.92
  Q 673.47 373.01 674.84 374.47
  Q 679.14 379.06 682.23 384.56
  C 683.21 386.29 683.74 386.54 685.39 387.46
  Q 685.85 387.72 686.20 388.13
  Q 687.39 389.55 686.87 391.09
  Q 686.75 391.47 686.86 391.85
  Q 687.40 393.58 688.77 392.96
  Q 689.31 392.71 689.49 393.27
  C 690.47 396.28 690.44 398.91 692.28 401.52
  Q 695.98 406.76 700.20 411.56
  Q 700.52 411.93 700.51 412.41
  Q 700.43 414.61 702.72 415.00
  Q 703.01 415.05 703.16 415.28
  Q 703.26 415.42 703.27 415.58
  Q 703.29 416.11 703.81 416.01
  C 705.37 415.70 705.24 419.22 705.91 420.39
  Q 706.01 420.56 705.98 420.75
  Q 705.96 420.88 705.92 421.00
  Q 705.87 421.12 705.95 421.21
  C 710.87 427.50 710.03 436.22 715.33 442.43
  C 717.16 444.57 715.82 448.15 715.05 450.42
  Q 714.78 451.23 715.62 451.14
  L 716.56 451.04
  Q 716.96 451.00 716.89 451.39
  Q 716.21 455.24 718.91 458.02
  Q 719.29 458.42 719.35 458.97
  Q 719.64 461.88 720.72 464.62
  Q 720.92 465.11 720.80 465.62
  L 720.21 468.25
  Q 720.11 468.72 720.31 469.16
  Q 721.46 471.64 720.80 474.30
  Q 720.68 474.79 720.85 475.25
  Q 721.80 477.94 721.96 481.75
  C 722.17 486.68 725.12 491.19 724.69 496.78
  C 724.27 502.41 724.44 505.92 724.80 510.71
  C 724.94 512.73 724.31 515.79 725.15 518.37
  Q 725.31 518.84 725.73 519.11
  C 729.10 521.19 728.53 526.17 728.94 529.05
  Q 729.01 529.59 728.78 530.08
  Q 727.15 533.50 727.59 537.34
  Q 727.64 537.82 727.28 538.13
  Q 726.08 539.20 726.90 540.62
  Q 727.24 541.20 727.04 541.83
  L 725.49 546.72
  Q 725.35 547.18 724.88 547.26
  C 723.35 547.54 721.52 555.50 721.15 557.03
  C 720.37 560.24 720.94 564.87 719.58 568.08
  Q 717.17 573.75 716.57 577.33
  Q 716.49 577.80 716.13 578.13
  C 715.07 579.08 716.73 580.73 714.94 581.26
  Q 714.51 581.38 714.33 581.79
  Q 712.88 585.10 710.68 587.93
  C 707.74 591.73 706.73 594.94 705.56 599.25
  C 704.52 603.10 702.51 606.28 701.21 610.05
  Q 701.03 610.57 700.58 610.87
  Q 698.62 612.18 698.21 614.51
  Q 698.12 615.02 697.76 615.39
  Q 694.52 618.73 692.74 623.13
  Q 692.53 623.63 692.09 623.96
  Q 688.60 626.52 687.71 628.94
  C 686.61 631.90 683.50 639.35 681.22 638.96
  Q 680.84 638.90 680.45 638.92
  Q 679.56 638.98 679.50 639.53
  Q 679.44 640.00 679.91 640.00
  L 681.49 640.00
  Q 682.10 640.00 681.69 640.46
  Q 677.70 644.92 673.73 649.38
  C 670.80 652.67 666.49 655.97 663.07 660.07
  C 653.20 671.94 639.58 680.25 627.90 690.14
  C 627.18 690.75 621.77 693.81 621.78 694.05
  Q 621.80 694.31 621.57 694.45
  L 613.60 699.51
  Q 613.21 699.76 612.75 699.78
  Q 606.07 700.09 601.79 703.30
  C 596.65 707.16 594.14 707.91 588.79 709.70
  C 584.22 711.22 581.80 714.31 576.62 715.40
  Q 576.00 715.53 576.00 716.16
  Q 576.00 716.29 576.00 716.43
  Q 576.01 716.97 575.47 717.06
  Q 571.97 717.61 568.47 718.10
  C 566.24 718.41 562.50 718.23 559.57 719.40
  Q 557.29 720.30 555.42 720.71
  C 553.13 721.20 550.82 722.72 548.55 722.75
  C 544.63 722.81 541.39 724.19 537.49 724.48
  C 536.45 724.56 535.36 725.46 534.10 725.61
  Q 528.37 726.26 522.61 726.14
  C 520.17 726.09 517.37 726.88 514.47 726.13
  Q 513.96 725.99 513.55 726.32
  Q 512.98 726.75 512.35 726.50
  Q 512.09 726.40 512.00 726.67
  C 511.51 728.05 506.27 727.04 505.16 727.16
  Q 502.71 727.42 500.28 727.79
  C 494.71 728.64 486.89 727.77 481.77 725.13
  C 480.38 724.41 479.19 724.87 477.97 724.32
  C 474.96 722.98 471.64 722.72 468.86 721.54
  C 458.81 717.27 451.09 714.10 441.28 712.82
  C 435.10 712.02 430.62 708.58 425.35 706.20
  C 422.12 704.74 420.19 703.74 417.28 701.06
  C 414.11 698.14 409.35 696.93 406.66 695.56
  Q 399.67 691.99 392.55 688.70
  C 389.87 687.46 389.09 685.13 386.80 683.63
  Q 379.68 678.97 373.67 672.95
  Q 372.20 671.47 369.61 669.90
  C 364.44 666.75 362.93 661.77 358.43 658.27
  C 352.27 653.48 346.59 647.37 341.15 641.77
  C 338.07 638.60 336.68 633.39 333.93 630.80
  Q 331.91 628.90 331.41 627.14
  Q 331.27 626.64 330.85 626.34
  Q 328.67 624.76 328.08 622.16
  Q 327.95 621.59 327.47 621.26
  L 323.51 618.44
  Q 323.05 618.11 322.88 617.56
  L 321.70 613.68
  Q 321.53 613.14 321.15 612.74
  Q 319.61 611.15 320.02 608.83
  Q 320.13 608.21 319.52 608.07
  Q 318.25 607.77 318.80 606.27
  Q 318.99 605.75 318.77 605.23
  L 315.97 598.48
  Q 315.76 597.97 315.32 597.64
  L 312.79 595.72
  Q 312.32 595.36 312.34 594.78
  Q 312.52 589.64 309.40 585.54
  A 1.34 1.32 -52.9 0 1 309.23 584.23
  Q 311.35 579.06 306.45 576.14
  Q 306.09 575.93 305.90 575.55
  C 303.08 570.13 303.62 565.88 301.76 560.89
  C 300.69 558.04 300.22 555.76 299.52 553.06
  C 298.76 550.15 299.44 546.91 296.46 544.16
  Q 296.08 543.81 296.08 543.30
  Q 296.06 534.26 295.14 525.28
  C 294.97 523.67 295.34 521.54 294.32 519.50
  Q 294.11 519.08 294.15 518.60
  C 294.55 513.71 292.90 508.17 294.00 502.55
  Q 295.02 497.38 295.18 495.21
  C 295.47 491.24 295.47 487.78 296.71 483.82
  Q 299.07 476.26 299.42 468.37
  C 299.62 463.99 301.32 460.66 301.87 456.46
  Q 302.75 449.76 305.91 443.77
  Q 306.16 443.29 305.98 442.78
  Q 305.47 441.35 306.09 439.91
  Q 306.29 439.44 306.80 439.35
  L 307.96 439.15
  Q 308.38 439.07 308.68 438.76
  C 310.11 437.23 309.63 435.55 310.01 434.11
  C 310.93 430.64 311.70 428.50 314.32 425.59
  Q 316.66 422.99 316.88 419.29
  Q 316.91 418.76 317.20 418.31
  Q 318.67 416.00 318.19 413.25
  Q 318.09 412.68 318.53 412.30
  L 320.88 410.26
  Q 321.20 409.98 321.19 409.55
  L 321.07 404.39
  Q 321.06 404.03 321.33 403.79
  L 324.99 400.49
  Q 325.34 400.18 325.82 400.11
  Q 327.56 399.89 328.24 398.22
  Q 328.41 397.81 328.08 397.51
  L 326.52 396.08
  Q 325.99 395.60 326.47 395.07
  Q 328.08 393.31 329.34 391.36
  C 331.26 388.40 334.30 386.79 336.78 384.34
  Q 336.97 384.15 336.72 384.07
  Q 336.58 384.03 336.44 383.98
  Q 336.33 383.95 336.39 383.84
  C 337.51 382.06 337.80 380.15 339.20 378.68
  C 340.66 377.16 342.22 376.34 343.38 374.61
  C 346.08 370.57 349.56 368.24 351.08 364.45
  Q 351.27 363.96 351.66 363.61
  L 356.24 359.47
  Q 356.62 359.12 357.14 359.06
  Q 359.04 358.82 359.77 356.95
  Q 359.94 356.53 360.25 356.21
  Q 362.21 354.28 364.76 353.28
  C 368.63 351.77 367.96 349.89 370.41 347.47
  Q 375.39 342.56 381.37 339.01
  Q 382.22 338.50 381.23 338.57
  Q 380.74 338.60 380.24 338.80
  Q 379.48 339.11 379.43 338.29
  L 379.32 336.29
  Q 379.28 335.56 379.98 335.36
  C 385.02 333.96 386.37 329.70 390.49 327.82
  Q 394.82 325.84 398.96 323.52
  C 400.14 322.85 400.69 321.56 402.32 321.13
  Q 402.75 321.01 403.10 321.29
  C 407.34 324.65 412.59 320.05 415.51 317.53
  C 416.98 316.26 419.35 316.38 421.00 315.53
  C 427.02 312.40 433.02 310.07 438.79 306.45
  C 440.59 305.33 442.88 305.36 444.83 303.97
  Q 445.23 303.68 445.73 303.62
  C 450.75 303.01 455.71 301.60 460.46 301.18
  C 464.95 300.78 468.76 300.76 473.34 299.33
  Q 478.28 297.79 483.49 298.72
  C 484.12 298.83 486.23 297.75 487.25 297.67
  C 491.66 297.35 495.93 296.41 500.18 296.40
  Q 505.95 296.37 511.71 296.44
  Q 511.96 296.44 512.00 296.19
  L 512.04 295.84
  Q 512.05 295.77 512.13 295.77
  Q 516.22 295.91 520.26 295.30
  C 522.37 294.98 524.70 295.41 527.26 295.25
  Q 534.39 294.82 543.29 296.50
  C 546.14 297.04 548.32 298.32 551.15 299.28
  Q 552.86 299.86 554.28 300.43
  Q 561.51 303.34 569.34 303.95
  Q 576.30 304.48 581.96 308.50
  Q 582.37 308.79 582.88 308.85
  C 585.40 309.15 587.80 310.19 590.03 310.70
  Q 598.21 312.57 604.63 317.92
  Q 606.98 319.88 609.31 320.97
  Q 618.94 325.49 627.22 332.10
  C 631.75 335.72 637.11 337.81 641.81 341.36
  Q 644.39 343.31 642.11 341.16
  Z
  M 376.00 388.21
  Q 374.32 389.68 372.88 391.38
  C 345.63 423.82 328.57 465.68 328.79 508.50
  C 327.99 556.25 347.24 603.10 381.74 636.14
  C 405.38 658.77 436.13 676.09 468.78 682.14
  Q 512.65 693.39 556.50 681.96
  Q 600.35 671.21 633.79 641.00
  Q 647.47 628.79 658.29 614.00
  Q 680.59 584.01 688.71 547.50
  Q 693.24 526.89 693.15 505.75
  Q 694.54 476.67 685.00 450.01
  Q 683.83 446.75 683.38 444.87
  Q 683.27 444.43 682.82 444.51
  Q 682.42 444.58 682.16 444.93
  L 667.20 454.93
  C 650.40 466.84 634.01 479.18 617.62 491.63
  Q 539.37 551.10 460.59 611.33
  Q 459.36 612.27 460.52 613.29
  Q 468.59 620.42 479.48 623.45
  Q 469.33 622.14 459.75 618.54
  Q 440.35 610.00 428.04 592.75
  Q 421.99 584.62 417.92 575.52
  Q 416.79 570.23 414.72 565.28
  C 407.23 547.37 402.79 527.39 404.61 509.17
  C 405.30 502.30 404.35 495.64 404.48 488.75
  C 404.54 485.82 405.86 482.56 405.55 479.08
  Q 405.38 477.16 407.22 471.32
  Q 413.08 452.66 423.79 436.30
  Q 423.97 436.02 424.04 435.69
  Q 424.14 435.23 424.39 434.82
  Q 434.94 417.81 449.22 403.85
  C 452.51 400.63 456.50 397.57 460.20 394.40
  C 474.27 382.36 491.27 372.87 508.32 365.75
  C 509.81 365.12 511.57 365.21 513.18 364.49
  C 518.40 362.16 524.45 360.72 531.12 358.10
  C 540.02 354.59 549.36 352.04 558.37 348.76
  C 559.33 348.41 559.82 347.69 559.96 346.75
  Q 560.42 344.35 558.71 342.76
  C 543.20 328.36 523.86 325.08 503.19 326.14
  C 454.01 328.65 408.44 351.88 376.00 388.21
  Z
  M 571.36 425.91
  Q 561.08 428.15 553.12 437.13
  Q 529.14 464.17 518.95 475.95
  Q 517.31 477.85 515.30 478.82
  Q 514.76 479.08 514.33 478.68
  Q 512.88 477.36 511.17 475.32
  Q 503.37 466.03 486.19 446.06
  Q 481.54 440.67 474.49 438.25
  Q 471.47 435.74 468.50 435.97
  C 464.39 436.30 459.32 437.82 455.97 440.93
  C 451.04 445.50 445.59 451.37 446.47 458.40
  C 447.76 468.69 453.67 474.78 461.43 483.49
  C 470.95 494.19 480.71 504.28 489.81 514.75
  C 497.24 523.31 504.30 532.34 512.81 539.85
  Q 513.16 540.16 513.63 540.19
  C 518.48 540.52 525.31 531.91 530.54 526.39
  C 535.21 521.47 540.45 514.79 545.79 509.29
  C 557.05 497.69 566.22 486.75 578.77 473.70
  C 580.33 472.07 581.63 469.71 583.04 468.29
  C 589.84 461.40 596.07 452.55 593.52 442.38
  Q 590.97 432.23 581.04 427.17
  Q 576.42 424.82 571.36 425.91
  Z"
/>
<path fill="#efeced" d="
  M 559.96 346.75
  Q 550.33 350.23 516.75 361.25
  Q 482.52 372.47 453.12 398.10
  C 435.39 413.55 422.52 432.08 412.25 453.29
  C 409.87 449.51 413.70 445.44 415.04 441.84
  Q 416.85 436.94 413.26 434.99
  C 406.07 431.09 400.46 425.29 393.45 421.09
  C 389.79 418.89 387.49 415.65 383.78 413.56
  Q 379.87 411.35 376.92 407.84
  Q 376.57 407.42 376.55 406.87
  Q 376.53 405.75 376.36 404.63
  Q 376.28 404.06 375.98 404.56
  L 375.80 404.87
  Q 375.50 405.36 375.38 404.80
  C 374.64 401.53 376.13 400.66 376.53 398.00
  C 377.02 394.63 380.08 391.06 383.56 388.41
  Q 384.01 388.07 383.98 387.50
  Q 383.91 386.06 385.51 385.95
  Q 386.07 385.91 386.29 385.40
  Q 387.24 383.21 389.18 381.79
  Q 389.65 381.44 389.75 380.87
  Q 389.88 380.13 390.79 379.91
  Q 391.14 379.83 391.31 379.52
  C 391.98 378.30 397.18 373.10 397.08 372.85
  Q 396.81 372.17 396.31 372.70
  Q 394.46 374.62 391.96 375.41
  Q 391.51 375.56 391.19 375.91
  L 386.31 381.43
  Q 385.86 381.94 385.17 381.98
  Q 383.76 382.07 384.01 383.54
  Q 384.13 384.22 383.46 384.04
  Q 382.33 383.73 381.92 384.44
  Q 381.73 384.77 381.39 384.94
  C 380.37 385.47 376.91 388.47 376.00 388.21
  C 408.44 351.88 454.01 328.65 503.19 326.14
  C 523.86 325.08 543.20 328.36 558.71 342.76
  Q 560.42 344.35 559.96 346.75
  Z"
/>
<path fill="#282548" d="
  M 559.96 346.75
  C 559.82 347.69 559.33 348.41 558.37 348.76
  C 549.36 352.04 540.02 354.59 531.12 358.10
  C 524.45 360.72 518.40 362.16 513.18 364.49
  C 511.57 365.21 509.81 365.12 508.32 365.75
  C 491.27 372.87 474.27 382.36 460.20 394.40
  C 456.50 397.57 452.51 400.63 449.22 403.85
  Q 434.94 417.81 424.39 434.82
  Q 424.14 435.23 424.04 435.69
  Q 423.97 436.02 423.79 436.30
  Q 413.08 452.66 407.22 471.32
  Q 405.38 477.16 405.55 479.08
  C 405.86 482.56 404.54 485.82 404.48 488.75
  C 404.35 495.64 405.30 502.30 404.61 509.17
  C 402.79 527.39 407.23 547.37 414.72 565.28
  Q 416.79 570.23 417.92 575.52
  L 414.54 569.00
  C 401.46 536.08 397.19 500.56 406.50 466.29
  L 412.25 453.29
  C 422.52 432.08 435.39 413.55 453.12 398.10
  Q 482.52 372.47 516.75 361.25
  Q 550.33 350.23 559.96 346.75
  Z"
/>
<path fill="#e2eef1" d="
  M 412.25 453.29
  L 406.50 466.29
  Q 405.05 466.13 404.19 467.69
  Q 383.12 505.94 386.75 549.04
  L 387.04 554.50
  L 387.30 558.60
  Q 387.34 559.25 386.68 559.25
  L 386.26 559.25
  Q 385.56 559.25 385.48 558.56
  Q 385.26 556.57 384.00 555.00
  Q 383.67 554.59 383.24 554.28
  C 381.80 553.28 381.36 551.84 380.06 550.86
  C 377.26 548.75 373.88 547.19 371.40 545.20
  Q 368.79 543.09 366.34 540.77
  Q 365.98 540.43 365.50 540.30
  C 362.97 539.61 362.77 537.31 361.61 535.99
  Q 352.47 525.63 348.99 522.76
  C 346.45 520.66 344.21 518.15 342.11 516.63
  Q 335.80 512.05 328.79 508.50
  C 328.57 465.68 345.63 423.82 372.88 391.38
  Q 374.32 389.68 376.00 388.21
  C 376.91 388.47 380.37 385.47 381.39 384.94
  Q 381.73 384.77 381.92 384.44
  Q 382.33 383.73 383.46 384.04
  Q 384.13 384.22 384.01 383.54
  Q 383.76 382.07 385.17 381.98
  Q 385.86 381.94 386.31 381.43
  L 391.19 375.91
  Q 391.51 375.56 391.96 375.41
  Q 394.46 374.62 396.31 372.70
  Q 396.81 372.17 397.08 372.85
  C 397.18 373.10 391.98 378.30 391.31 379.52
  Q 391.14 379.83 390.79 379.91
  Q 389.88 380.13 389.75 380.87
  Q 389.65 381.44 389.18 381.79
  Q 387.24 383.21 386.29 385.40
  Q 386.07 385.91 385.51 385.95
  Q 383.91 386.06 383.98 387.50
  Q 384.01 388.07 383.56 388.41
  C 380.08 391.06 377.02 394.63 376.53 398.00
  C 376.13 400.66 374.64 401.53 375.38 404.80
  Q 375.50 405.36 375.80 404.87
  L 375.98 404.56
  Q 376.28 404.06 376.36 404.63
  Q 376.53 405.75 376.55 406.87
  Q 376.57 407.42 376.92 407.84
  Q 379.87 411.35 383.78 413.56
  C 387.49 415.65 389.79 418.89 393.45 421.09
  C 400.46 425.29 406.07 431.09 413.26 434.99
  Q 416.85 436.94 415.04 441.84
  C 413.70 445.44 409.87 449.51 412.25 453.29
  Z"
/>
<path fill="#282548" d="
  M 474.49 438.25
  C 462.71 435.57 450.69 442.77 449.31 454.99
  C 447.96 466.88 455.14 474.01 462.83 482.43
  Q 479.50 500.71 509.77 534.73
  Q 511.64 536.84 513.75 538.85
  A 1.58 1.58 0.0 0 0 515.88 538.91
  Q 522.38 533.29 528.38 526.63
  Q 556.95 494.95 585.57 463.32
  C 588.84 459.70 591.52 455.06 592.00 449.99
  Q 593.97 428.97 571.36 425.91
  Q 576.42 424.82 581.04 427.17
  Q 590.97 432.23 593.52 442.38
  C 596.07 452.55 589.84 461.40 583.04 468.29
  C 581.63 469.71 580.33 472.07 578.77 473.70
  C 566.22 486.75 557.05 497.69 545.79 509.29
  C 540.45 514.79 535.21 521.47 530.54 526.39
  C 525.31 531.91 518.48 540.52 513.63 540.19
  Q 513.16 540.16 512.81 539.85
  C 504.30 532.34 497.24 523.31 489.81 514.75
  C 480.71 504.28 470.95 494.19 461.43 483.49
  C 453.67 474.78 447.76 468.69 446.47 458.40
  C 445.59 451.37 451.04 445.50 455.97 440.93
  C 459.32 437.82 464.39 436.30 468.50 435.97
  Q 471.47 435.74 474.49 438.25
  Z"
/>
<path fill="#efeced" d="
  M 571.36 425.91
  Q 593.97 428.97 592.00 449.99
  C 591.52 455.06 588.84 459.70 585.57 463.32
  Q 556.95 494.95 528.38 526.63
  Q 522.38 533.29 515.88 538.91
  A 1.58 1.58 0.0 0 1 513.75 538.85
  Q 511.64 536.84 509.77 534.73
  Q 479.50 500.71 462.83 482.43
  C 455.14 474.01 447.96 466.88 449.31 454.99
  C 450.69 442.77 462.71 435.57 474.49 438.25
  Q 481.54 440.67 486.19 446.06
  Q 503.37 466.03 511.17 475.32
  Q 512.88 477.36 514.33 478.68
  Q 514.76 479.08 515.30 478.82
  Q 517.31 477.85 518.95 475.95
  Q 529.14 464.17 553.12 437.13
  Q 561.08 428.15 571.36 425.91
  Z"
/>
<path fill="#282548" d="
  M 693.15 505.75
  Q 692.39 474.53 682.16 444.93
  Q 682.42 444.58 682.82 444.51
  Q 683.27 444.43 683.38 444.87
  Q 683.83 446.75 685.00 450.01
  Q 694.54 476.67 693.15 505.75
  Z"
/>
<path fill="#ee74b9" d="
  M 682.16 444.93
  Q 692.39 474.53 693.15 505.75
  Q 693.24 526.89 688.71 547.50
  Q 688.46 547.66 688.21 547.64
  Q 687.68 547.59 687.77 547.07
  L 690.53 531.38
  Q 690.61 530.89 690.15 531.06
  C 687.73 531.96 686.05 529.30 684.27 531.71
  Q 684.00 532.08 683.54 532.05
  Q 682.26 531.96 680.97 531.97
  C 678.69 531.98 677.06 533.69 674.44 531.90
  Q 674.02 531.62 673.53 531.55
  C 670.72 531.11 664.07 529.21 662.26 526.82
  Q 661.97 526.43 661.52 526.25
  L 657.99 524.87
  Q 657.56 524.70 657.57 524.24
  Q 657.58 522.95 656.04 522.93
  Q 652.64 522.86 651.23 525.36
  Q 651.18 525.45 651.08 525.43
  L 650.80 525.38
  Q 650.34 525.30 650.53 524.87
  Q 658.02 507.88 662.32 489.83
  C 662.59 488.69 662.52 487.64 662.46 486.50
  L 667.20 454.93
  L 682.16 444.93
  Z"
/>
<path fill="#efeced" d="
  M 667.20 454.93
  L 662.46 486.50
  C 647.20 556.51 595.53 607.41 525.50 622.21
  L 524.21 622.50
  C 508.77 625.36 494.66 626.06 479.48 623.45
  Q 468.59 620.42 460.52 613.29
  Q 459.36 612.27 460.59 611.33
  Q 539.37 551.10 617.62 491.63
  C 634.01 479.18 650.40 466.84 667.20 454.93
  Z"
/>
<path fill="#2ccff3" d="
  M 406.50 466.29
  C 397.19 500.56 401.46 536.08 414.54 569.00
  L 414.10 570.02
  Q 413.75 570.82 413.52 569.97
  L 412.59 566.52
  Q 412.44 565.93 412.46 566.54
  Q 412.52 567.77 411.61 568.63
  Q 411.25 568.97 410.76 568.93
  C 406.93 568.66 407.03 565.99 404.40 564.82
  Q 403.91 564.61 403.70 564.12
  Q 402.86 562.19 400.94 561.33
  Q 400.46 561.11 400.28 560.61
  C 399.99 559.76 399.73 559.38 398.90 558.91
  Q 394.88 556.61 391.97 553.04
  Q 391.62 552.61 391.11 552.40
  Q 389.28 551.67 388.57 550.01
  Q 388.36 549.53 387.84 549.58
  Q 387.19 549.65 386.75 549.04
  Q 383.12 505.94 404.19 467.69
  Q 405.05 466.13 406.50 466.29
  Z"
/>
<path fill="#e05ec7" d="
  M 662.46 486.50
  C 662.52 487.64 662.59 488.69 662.32 489.83
  Q 658.02 507.88 650.53 524.87
  Q 650.34 525.30 650.80 525.38
  L 651.08 525.43
  Q 651.18 525.45 651.23 525.36
  Q 652.64 522.86 656.04 522.93
  Q 657.58 522.95 657.57 524.24
  Q 657.56 524.70 657.99 524.87
  L 661.52 526.25
  Q 661.97 526.43 662.26 526.82
  C 664.07 529.21 670.72 531.11 673.53 531.55
  Q 674.02 531.62 674.44 531.90
  C 677.06 533.69 678.69 531.98 680.97 531.97
  Q 682.26 531.96 683.54 532.05
  Q 684.00 532.08 684.27 531.71
  C 686.05 529.30 687.73 531.96 690.15 531.06
  Q 690.61 530.89 690.53 531.38
  L 687.77 547.07
  Q 687.68 547.59 688.21 547.64
  Q 688.46 547.66 688.71 547.50
  Q 680.59 584.01 658.29 614.00
  Q 658.21 612.81 657.13 612.59
  Q 656.65 612.49 656.40 612.07
  L 655.44 610.48
  Q 655.21 610.11 654.81 610.28
  C 650.92 611.95 650.56 607.91 649.46 605.64
  Q 649.25 605.22 649.72 605.24
  Q 649.90 605.25 650.07 605.27
  Q 650.64 605.33 650.44 604.80
  L 649.54 602.40
  Q 649.38 602.00 648.96 602.00
  L 648.50 602.00
  Q 647.95 602.00 647.72 601.51
  L 646.21 598.25
  Q 645.97 597.75 646.52 597.75
  L 646.98 597.75
  Q 647.53 597.75 647.33 597.24
  L 644.94 591.20
  Q 644.73 590.67 644.22 590.39
  L 640.40 588.31
  Q 639.99 588.09 640.00 588.56
  Q 640.00 588.67 640.01 588.82
  Q 640.03 589.25 639.79 588.90
  C 636.35 583.87 630.95 580.93 625.67 576.15
  Q 625.51 576.00 625.29 576.00
  L 624.87 576.00
  Q 624.33 576.00 624.05 575.55
  Q 622.50 573.10 619.78 572.39
  Q 619.36 572.28 619.06 572.59
  Q 604.98 586.67 588.25 597.46
  C 570.00 609.14 547.17 619.68 525.50 622.21
  C 595.53 607.41 647.20 556.51 662.46 486.50
  Z"
/>
<path fill="#a7d4f3" d="
  M 328.79 508.50
  Q 335.80 512.05 342.11 516.63
  C 344.21 518.15 346.45 520.66 348.99 522.76
  Q 352.47 525.63 361.61 535.99
  C 362.77 537.31 362.97 539.61 365.50 540.30
  Q 365.98 540.43 366.34 540.77
  Q 368.79 543.09 371.40 545.20
  C 373.88 547.19 377.26 548.75 380.06 550.86
  C 381.36 551.84 381.80 553.28 383.24 554.28
  Q 383.67 554.59 384.00 555.00
  Q 385.26 556.57 385.48 558.56
  Q 385.56 559.25 386.26 559.25
  L 386.68 559.25
  Q 387.34 559.25 387.30 558.60
  L 387.04 554.50
  Q 388.30 563.85 390.54 573.00
  Q 396.56 599.99 411.00 623.54
  C 424.21 646.32 444.93 669.71 468.78 682.14
  C 436.13 676.09 405.38 658.77 381.74 636.14
  C 347.24 603.10 327.99 556.25 328.79 508.50
  Z"
/>
<path fill="#3f9ff8" d="
  M 386.75 549.04
  Q 387.19 549.65 387.84 549.58
  Q 388.36 549.53 388.57 550.01
  Q 389.28 551.67 391.11 552.40
  Q 391.62 552.61 391.97 553.04
  Q 394.88 556.61 398.90 558.91
  C 399.73 559.38 399.99 559.76 400.28 560.61
  Q 400.46 561.11 400.94 561.33
  Q 402.86 562.19 403.70 564.12
  Q 403.91 564.61 404.40 564.82
  C 407.03 565.99 406.93 568.66 410.76 568.93
  Q 411.25 568.97 411.61 568.63
  Q 412.52 567.77 412.46 566.54
  Q 412.44 565.93 412.59 566.52
  L 413.52 569.97
  Q 413.75 570.82 414.10 570.02
  L 414.54 569.00
  L 417.92 575.52
  Q 421.99 584.62 428.04 592.75
  L 427.36 593.48
  Q 427.11 593.75 426.84 593.52
  Q 426.39 593.14 425.79 593.52
  Q 425.35 593.81 424.85 593.64
  L 410.41 588.69
  Q 409.89 588.51 409.54 588.08
  Q 408.32 586.56 404.91 584.93
  Q 402.15 583.62 397.95 578.78
  Q 396.64 577.27 394.62 577.18
  Q 393.97 577.15 394.28 576.57
  Q 395.03 575.19 393.61 574.01
  Q 393.16 573.63 393.01 574.20
  Q 392.97 574.35 393.00 574.51
  Q 393.18 575.41 392.47 574.49
  Q 391.71 573.51 390.54 573.00
  Q 388.30 563.85 387.04 554.50
  L 386.75 549.04
  Z"
/>
<path fill="#c749f0" d="
  M 658.29 614.00
  Q 647.47 628.79 633.79 641.00
  Q 633.67 640.64 633.80 640.33
  Q 633.88 640.16 633.69 640.14
  C 630.44 639.80 627.23 639.02 622.72 639.51
  Q 622.26 639.56 622.04 639.14
  L 621.14 637.35
  Q 620.91 636.89 620.43 636.69
  Q 614.95 634.37 613.86 628.30
  Q 613.22 624.74 610.29 622.51
  Q 609.87 622.19 609.78 621.67
  L 609.18 618.45
  Q 609.02 617.56 608.22 617.99
  Q 606.99 618.66 605.80 617.84
  Q 605.45 617.60 605.24 617.24
  L 603.38 614.04
  Q 603.09 613.54 602.60 613.25
  Q 597.49 610.20 593.34 605.93
  Q 592.99 605.57 592.51 605.40
  L 591.61 605.06
  Q 591.08 604.87 590.84 604.35
  L 589.16 600.75
  Q 588.99 600.37 588.56 600.32
  L 587.64 600.23
  Q 587.27 600.19 587.31 599.83
  C 587.53 598.07 589.22 598.46 590.30 597.84
  Q 592.42 596.62 590.05 597.61
  Q 589.18 597.98 588.25 597.46
  Q 604.98 586.67 619.06 572.59
  Q 619.36 572.28 619.78 572.39
  Q 622.50 573.10 624.05 575.55
  Q 624.33 576.00 624.87 576.00
  L 625.29 576.00
  Q 625.51 576.00 625.67 576.15
  C 630.95 580.93 636.35 583.87 639.79 588.90
  Q 640.03 589.25 640.01 588.82
  Q 640.00 588.67 640.00 588.56
  Q 639.99 588.09 640.40 588.31
  L 644.22 590.39
  Q 644.73 590.67 644.94 591.20
  L 647.33 597.24
  Q 647.53 597.75 646.98 597.75
  L 646.52 597.75
  Q 645.97 597.75 646.21 598.25
  L 647.72 601.51
  Q 647.95 602.00 648.50 602.00
  L 648.96 602.00
  Q 649.38 602.00 649.54 602.40
  L 650.44 604.80
  Q 650.64 605.33 650.07 605.27
  Q 649.90 605.25 649.72 605.24
  Q 649.25 605.22 649.46 605.64
  C 650.56 607.91 650.92 611.95 654.81 610.28
  Q 655.21 610.11 655.44 610.48
  L 656.40 612.07
  Q 656.65 612.49 657.13 612.59
  Q 658.21 612.81 658.29 614.00
  Z"
/>
<path fill="#5568fc" d="
  M 390.54 573.00
  Q 391.71 573.51 392.47 574.49
  Q 393.18 575.41 393.00 574.51
  Q 392.97 574.35 393.01 574.20
  Q 393.16 573.63 393.61 574.01
  Q 395.03 575.19 394.28 576.57
  Q 393.97 577.15 394.62 577.18
  Q 396.64 577.27 397.95 578.78
  Q 402.15 583.62 404.91 584.93
  Q 408.32 586.56 409.54 588.08
  Q 409.89 588.51 410.41 588.69
  L 424.85 593.64
  Q 425.35 593.81 425.79 593.52
  Q 426.39 593.14 426.84 593.52
  Q 427.11 593.75 427.36 593.48
  L 428.04 592.75
  Q 440.35 610.00 459.75 618.54
  Q 459.59 619.65 460.19 620.63
  Q 460.30 620.80 460.09 620.80
  L 449.27 620.59
  Q 448.71 620.58 448.34 621.00
  Q 447.69 621.72 447.20 621.05
  C 444.34 620.09 443.03 621.63 440.51 621.48
  Q 440.18 621.46 440.49 621.34
  Q 440.61 621.29 440.76 621.26
  Q 441.34 621.14 440.74 621.10
  L 438.43 620.94
  Q 437.95 620.90 437.53 621.14
  Q 435.75 622.16 433.60 621.69
  Q 433.02 621.56 433.51 621.90
  Q 433.63 621.98 433.77 622.04
  Q 434.41 622.33 433.83 622.38
  Q 432.76 622.47 432.22 623.42
  Q 432.02 623.76 431.63 623.83
  C 426.22 624.77 416.67 619.77 411.05 617.68
  A 1.26 1.26 0.0 0 0 409.52 619.49
  L 411.60 623.08
  Q 411.77 623.36 411.48 623.51
  Q 411.21 623.65 411.00 623.54
  Q 396.56 599.99 390.54 573.00
  Z"
/>
<path fill="#a944fe" d="
  M 633.79 641.00
  Q 600.35 671.21 556.50 681.96
  L 556.72 681.28
  Q 556.82 680.99 556.52 681.00
  Q 556.37 681.00 556.20 680.98
  Q 555.97 680.96 555.83 680.78
  Q 554.26 678.80 551.74 679.05
  Q 551.25 679.10 550.88 678.78
  L 550.12 678.12
  Q 549.69 677.75 550.26 677.75
  L 551.46 677.75
  Q 553.24 677.75 551.53 677.27
  L 544.13 675.17
  Q 544.00 675.13 544.00 675.27
  Q 544.00 675.43 544.01 675.60
  Q 544.03 675.95 543.72 675.78
  L 538.12 672.66
  Q 536.99 672.03 538.28 672.02
  L 541.00 671.99
  Q 542.17 671.98 540.95 671.69
  Q 538.28 671.06 536.36 668.18
  Q 535.56 666.99 534.12 667.57
  Q 533.68 667.76 533.40 667.37
  C 530.82 663.77 527.31 662.64 525.73 657.30
  Q 525.58 656.80 525.10 656.59
  L 522.67 655.55
  Q 522.17 655.33 521.80 654.92
  Q 519.21 651.99 517.12 648.70
  Q 516.82 648.23 516.29 648.06
  L 512.48 646.78
  Q 512.00 646.62 512.00 646.12
  C 512.01 644.82 512.60 641.15 510.25 641.50
  Q 509.71 641.58 509.31 641.19
  L 508.56 640.44
  Q 508.12 640.00 508.75 640.00
  L 509.13 640.00
  Q 509.67 640.00 509.29 639.62
  L 506.85 637.12
  Q 506.29 636.56 507.03 636.28
  L 507.78 636.01
  Q 508.33 635.81 508.19 635.24
  L 507.14 631.08
  Q 506.99 630.46 507.61 630.34
  L 508.43 630.18
  Q 508.85 630.09 509.02 629.71
  Q 509.74 628.07 511.48 627.51
  Q 512.03 627.33 512.01 626.76
  L 511.97 625.24
  Q 511.96 624.86 512.34 624.85
  Q 518.50 624.53 524.21 622.50
  L 525.50 622.21
  C 547.17 619.68 570.00 609.14 588.25 597.46
  Q 589.18 597.98 590.05 597.61
  Q 592.42 596.62 590.30 597.84
  C 589.22 598.46 587.53 598.07 587.31 599.83
  Q 587.27 600.19 587.64 600.23
  L 588.56 600.32
  Q 588.99 600.37 589.16 600.75
  L 590.84 604.35
  Q 591.08 604.87 591.61 605.06
  L 592.51 605.40
  Q 592.99 605.57 593.34 605.93
  Q 597.49 610.20 602.60 613.25
  Q 603.09 613.54 603.38 614.04
  L 605.24 617.24
  Q 605.45 617.60 605.80 617.84
  Q 606.99 618.66 608.22 617.99
  Q 609.02 617.56 609.18 618.45
  L 609.78 621.67
  Q 609.87 622.19 610.29 622.51
  Q 613.22 624.74 613.86 628.30
  Q 614.95 634.37 620.43 636.69
  Q 620.91 636.89 621.14 637.35
  L 622.04 639.14
  Q 622.26 639.56 622.72 639.51
  C 627.23 639.02 630.44 639.80 633.69 640.14
  Q 633.88 640.16 633.80 640.33
  Q 633.67 640.64 633.79 641.00
  Z"
/>
<path fill="#6a45fe" d="
  M 459.75 618.54
  Q 469.33 622.14 479.48 623.45
  C 494.66 626.06 508.77 625.36 524.21 622.50
  Q 518.50 624.53 512.34 624.85
  Q 511.96 624.86 511.97 625.24
  L 512.01 626.76
  Q 512.03 627.33 511.48 627.51
  Q 509.74 628.07 509.02 629.71
  Q 508.85 630.09 508.43 630.18
  L 507.61 630.34
  Q 506.99 630.46 507.14 631.08
  L 508.19 635.24
  Q 508.33 635.81 507.78 636.01
  L 507.03 636.28
  Q 506.29 636.56 506.85 637.12
  L 509.29 639.62
  Q 509.67 640.00 509.13 640.00
  L 508.75 640.00
  Q 508.12 640.00 508.56 640.44
  L 509.31 641.19
  Q 509.71 641.58 510.25 641.50
  C 512.60 641.15 512.01 644.82 512.00 646.12
  Q 512.00 646.62 512.48 646.78
  L 516.29 648.06
  Q 516.82 648.23 517.12 648.70
  Q 519.21 651.99 521.80 654.92
  Q 522.17 655.33 522.67 655.55
  L 525.10 656.59
  Q 525.58 656.80 525.73 657.30
  C 527.31 662.64 530.82 663.77 533.40 667.37
  Q 533.68 667.76 534.12 667.57
  Q 535.56 666.99 536.36 668.18
  Q 538.28 671.06 540.95 671.69
  Q 542.17 671.98 541.00 671.99
  L 538.28 672.02
  Q 536.99 672.03 538.12 672.66
  L 543.72 675.78
  Q 544.03 675.95 544.01 675.60
  Q 544.00 675.43 544.00 675.27
  Q 544.00 675.13 544.13 675.17
  L 551.53 677.27
  Q 553.24 677.75 551.46 677.75
  L 550.26 677.75
  Q 549.69 677.75 550.12 678.12
  L 550.88 678.78
  Q 551.25 679.10 551.74 679.05
  Q 554.26 678.80 555.83 680.78
  Q 555.97 680.96 556.20 680.98
  Q 556.37 681.00 556.52 681.00
  Q 556.82 680.99 556.72 681.28
  L 556.50 681.96
  Q 512.65 693.39 468.78 682.14
  C 444.93 669.71 424.21 646.32 411.00 623.54
  Q 411.21 623.65 411.48 623.51
  Q 411.77 623.36 411.60 623.08
  L 409.52 619.49
  A 1.26 1.26 0.0 0 1 411.05 617.68
  C 416.67 619.77 426.22 624.77 431.63 623.83
  Q 432.02 623.76 432.22 623.42
  Q 432.76 622.47 433.83 622.38
  Q 434.41 622.33 433.77 622.04
  Q 433.63 621.98 433.51 621.90
  Q 433.02 621.56 433.60 621.69
  Q 435.75 622.16 437.53 621.14
  Q 437.95 620.90 438.43 620.94
  L 440.74 621.10
  Q 441.34 621.14 440.76 621.26
  Q 440.61 621.29 440.49 621.34
  Q 440.18 621.46 440.51 621.48
  C 443.03 621.63 444.34 620.09 447.20 621.05
  Q 447.69 621.72 448.34 621.00
  Q 448.71 620.58 449.27 620.59
  L 460.09 620.80
  Q 460.30 620.80 460.19 620.63
  Q 459.59 619.65 459.75 618.54
  Z"
/>
</svg>
